<?xml version="1.0" encoding="utf-8"?>
<!-- Generator: Adobe Illustrator 19.0.0, SVG Export Plug-In . SVG Version: 6.00 Build 0)  -->
<svg version="1.1" id="Ebene_1" xmlns="http://www.w3.org/2000/svg" xmlns:xlink="http://www.w3.org/1999/xlink" x="0px" y="0px"
	 viewBox="0 0 20 20" enable-background="new 0 0 20 20" xml:space="preserve">
<g id="Head">
	<path id="XMLID_2_" fill="#CCCACA" stroke="#000000" stroke-width="0.5" stroke-miterlimit="10" d="M13.8,17.3l3.2-7.1
		c1.8-4-0.3-9.1-3.7-9.1H6.9c-3.4,0-5.5,5.2-3.7,9.1l3.2,7.1C8.2,21,12.1,21,13.8,17.3l3.2-7.1c1.8-4-0.3-9.1-3.7-9.1H6.9
		c-3.4,0-5.5,5.2-3.7,9.1l3.2,7.1C8.2,21,12.1,21,13.8,17.3z"/>
</g>
<g id="Eyes">
	<ellipse id="XMLID_3_" transform="matrix(-0.6728 -0.7398 0.7398 -0.6728 6.1708 15.9665)" cx="6.6" cy="6.6" rx="2.5" ry="0.4"/>
	
		<ellipse id="XMLID_5_" transform="matrix(-0.9989 -4.739212e-002 4.739212e-002 -0.9989 19.1234 28.6535)" cx="9.9" cy="14.1" rx="1" ry="0.4"/>
	<ellipse id="XMLID_6_" transform="matrix(0.7033 -0.7109 0.7109 0.7033 -2.7208 6.7395)" cx="6.7" cy="6.6" rx="2.5" ry="0.4"/>
	
		<ellipse id="XMLID_7_" transform="matrix(-0.6728 -0.7398 0.7398 -0.6728 16.2079 20.4054)" cx="12.6" cy="6.6" rx="2.5" ry="0.4"/>
	<ellipse id="XMLID_4_" transform="matrix(0.7033 -0.7109 0.7109 0.7033 -0.9407 11.0048)" cx="12.7" cy="6.6" rx="2.5" ry="0.4"/>
	<g id="XMLID_1_">
	</g>
	<g id="XMLID_8_">
	</g>
	<g id="XMLID_9_">
	</g>
	<g id="XMLID_10_">
	</g>
	<g id="XMLID_11_">
	</g>
	<g id="XMLID_12_">
	</g>
	<g id="XMLID_13_">
	</g>
	<g id="XMLID_14_">
	</g>
	<g id="XMLID_15_">
	</g>
	<g id="XMLID_16_">
	</g>
	<g id="XMLID_17_">
	</g>
	<g id="XMLID_18_">
	</g>
	<g id="XMLID_19_">
	</g>
	<g id="XMLID_20_">
	</g>
	<g id="XMLID_21_">
	</g>
</g>
</svg>
