<?xml version="1.0" encoding="utf-8"?>
<!-- Generator: Adobe Illustrator 19.0.0, SVG Export Plug-In . SVG Version: 6.00 Build 0)  -->
<svg version="1.1" xmlns="http://www.w3.org/2000/svg" xmlns:xlink="http://www.w3.org/1999/xlink" x="0px" y="0px"
	 viewBox="0 0 20 20" enable-background="new 0 0 20 20" xml:space="preserve">
<g id="Head">
	<ellipse id="XMLID_1_" fill="#84DE02" cx="10.1" cy="7.5" rx="7.5" ry="7.5"/>
	<path id="XMLID_2_" fill="#84DE02" d="M13.8,17.4l3.2-6.7c1.8-3.7-0.3-8.6-3.7-8.6H6.9c-3.4,0-5.5,4.9-3.7,8.6l3.2,6.7
		C8.2,20.9,12.1,20.9,13.8,17.4l3.2-6.7c1.8-3.7-0.3-8.6-3.7-8.6H6.9c-3.4,0-5.5,4.9-3.7,8.6l3.2,6.7C8.2,20.9,12.1,20.9,13.8,17.4z
		"/>
</g>
<g id="Eyes">
	<ellipse id="XMLID_4_" transform="matrix(0.7318 -0.6815 0.6815 0.7318 -0.5506 10.6715)" cx="13.3" cy="6" rx="2.5" ry="1.3"/>
	<ellipse id="XMLID_3_" transform="matrix(0.6728 0.7398 -0.7398 0.6728 6.8483 -3.4138)" cx="7.3" cy="6" rx="2.5" ry="1.3"/>
	
		<ellipse id="XMLID_5_" transform="matrix(0.9989 4.739437e-002 -4.739437e-002 0.9989 0.6325 -0.4552)" cx="9.9" cy="13.1" rx="1" ry="0.4"/>
	<g id="XMLID_6_">
	</g>
	<g id="XMLID_7_">
	</g>
	<g id="XMLID_8_">
	</g>
	<g id="XMLID_9_">
	</g>
	<g id="XMLID_10_">
	</g>
	<g id="XMLID_11_">
	</g>
	<g id="XMLID_12_">
	</g>
	<g id="XMLID_13_">
	</g>
	<g id="XMLID_14_">
	</g>
	<g id="XMLID_15_">
	</g>
	<g id="XMLID_16_">
	</g>
	<g id="XMLID_17_">
	</g>
	<g id="XMLID_18_">
	</g>
	<g id="XMLID_19_">
	</g>
	<g id="XMLID_20_">
	</g>
</g>
</svg>
