<?xml version="1.0" standalone="no"?>
<!DOCTYPE svg PUBLIC "-//W3C//DTD SVG 20010904//EN"
 "http://www.w3.org/TR/2001/REC-SVG-20010904/DTD/svg10.dtd">
<svg version="1.0" xmlns="http://www.w3.org/2000/svg"
 width="300.000000pt" height="300.000000pt" viewBox="0 0 300.000000 300.000000"
 preserveAspectRatio="xMidYMid meet">
<metadata>
Created by potrace 1.10, written by Peter Selinger 2001-2011
</metadata>
<g transform="translate(0.000000,300.000000) scale(0.100000,-0.100000)"
fill="#000000" stroke="none">
<path d="M532 2224 c-48 -25 -108 -98 -133 -163 -16 -39 -24 -85 -27 -156 l-4
-101 -165 -89 c-91 -50 -172 -95 -181 -101 -13 -9 2 -16 75 -33 98 -23 228
-27 302 -10 39 9 46 8 54 -7 40 -71 146 -150 242 -182 75 -25 625 -82 791 -82
24 0 44 -2 44 -5 0 -3 -11 -22 -24 -43 -13 -21 -38 -66 -56 -102 -40 -78 -36
-120 17 -197 69 -102 208 -170 327 -161 153 13 252 116 332 343 15 44 29 82
31 84 2 3 21 -13 43 -34 l39 -38 -39 -43 c-36 -39 -60 -94 -60 -138 0 -44 27
-104 65 -142 81 -80 197 -80 280 0 85 81 86 198 2 284 l-32 33 110 104 c61 58
131 124 156 149 26 24 59 69 74 100 24 49 31 56 56 56 17 0 32 -6 35 -15 6
-14 -11 -308 -22 -394 -5 -41 -7 -43 -22 -27 -25 25 -20 164 12 305 28 125 29
157 2 60 -32 -115 -46 -200 -46 -275 0 -90 10 -114 49 -114 24 0 32 7 47 43
16 36 19 70 19 238 l0 196 33 27 c44 38 43 74 -3 115 l-36 31 20 68 c55 184
71 354 36 392 -70 77 -112 -57 -100 -312 l7 -138 -29 0 c-25 0 -33 6 -48 40
-21 46 -98 122 -149 147 -35 16 -36 16 -113 -20 -102 -47 -152 -59 -241 -59
-114 0 -199 47 -277 155 l-20 27 -599 -65 c-330 -36 -601 -63 -603 -62 -2 2 4
21 13 43 26 59 25 175 -2 210 -41 56 -67 68 -161 71 -68 3 -96 0 -121 -13z
m191 -25 c41 -21 77 -53 77 -68 0 -6 -21 0 -47 11 -102 45 -212 19 -269 -63
-32 -46 -70 -147 -79 -213 -5 -32 -11 -44 -18 -37 -6 6 -4 42 7 107 27 160 86
257 173 284 38 12 109 2 156 -21z m2202 -209 c-8 -117 -15 -217 -15 -222 0 -5
-4 -6 -10 -3 -13 8 -13 280 0 359 8 52 26 93 37 82 2 -2 -3 -99 -12 -216z
m-928 -40 c49 -55 85 -79 157 -107 l61 -24 -280 6 c-585 11 -1101 28 -1115 36
-13 7 -13 8 0 9 8 1 249 27 535 59 286 32 539 59 563 60 37 1 46 -4 79 -39z
m937 -238 c39 -22 50 -43 42 -75 -7 -31 -26 -36 -26 -8 0 26 -36 68 -78 92
l-37 20 35 -7 c19 -3 48 -13 64 -22z m-2293 -6 c-34 -36 -129 -83 -202 -101
-68 -16 -263 -20 -334 -6 -35 6 -28 8 53 14 123 9 270 40 390 81 120 41 121
42 93 12z m1574 -133 c-27 -159 -94 -371 -155 -493 -74 -147 -168 -230 -259
-230 l-36 0 35 27 c136 105 268 320 359 588 23 66 43 126 46 133 9 26 16 10
10 -25z m-591 -125 c-4 -7 -25 -37 -47 -65 -46 -61 -20 -57 -287 -43 -329 18
-569 45 -591 67 -5 5 47 2 114 -5 67 -7 226 -14 352 -14 247 -1 346 11 422 51
46 24 46 24 37 9z m853 -215 l-66 -68 -66 1 c-65 1 -67 2 -116 50 -27 26 -49
51 -49 55 0 5 197 22 325 27 l39 2 -67 -67z m-142 -119 c-21 -8 -50 -24 -63
-37 -65 -59 -69 -171 -10 -234 31 -34 4 -28 -35 7 -45 39 -61 79 -55 139 9 87
69 141 158 140 l45 0 -40 -15z m40 -149 c0 -27 -3 -30 -30 -30 -21 0 -31 5
-33 18 -6 33 6 49 35 45 24 -3 28 -8 28 -33z"/>
</g>
</svg>
